<svg width="16" height="16" viewBox="0 0 16 16" fill="none" xmlns="http://www.w3.org/2000/svg">
<path id="Vector" d="M6.08487 14.2901H1.39461C1.34276 14.2901 1.29138 14.2929 1.23999 14.2901C1.09776 14.2791 0.991784 14.1772 1.0005 14.0496C1.01059 13.9027 1.09685 13.8164 1.24412 13.8127C1.46709 13.8063 1.69053 13.8105 1.91396 13.8105H3.11371V2.16584C3.11371 2.11398 3.11371 2.06259 3.11371 2.01118C3.11784 1.78949 3.19354 1.71146 3.41423 1.711C4.23272 1.711 5.05121 1.711 5.8697 1.711H6.08441C6.08441 1.56687 6.08441 1.43193 6.08441 1.2979C6.08992 1.06841 6.19866 0.978887 6.42346 1.00413C7.91822 1.17335 9.41313 1.34164 10.9082 1.50902C11.482 1.57389 12.0558 1.64045 12.6296 1.70869C12.8131 1.73072 12.8778 1.80324 12.8842 1.98776C12.8842 2.04513 12.8842 2.10252 12.8842 2.15943V13.8105H13.1338C13.666 13.8105 14.1987 13.8105 14.7309 13.8105C14.8956 13.8105 15.0062 13.9197 14.9997 14.0588C14.9933 14.1979 14.8892 14.2832 14.7304 14.2883C14.6905 14.2883 14.6501 14.2883 14.6102 14.2883C14.1354 14.2883 13.6587 14.2658 13.1852 14.2933C12.4612 14.3355 11.7377 14.4007 11.016 14.4769C9.84424 14.5999 8.67615 14.7395 7.50347 14.8717C7.15112 14.9116 6.7983 14.9488 6.44824 14.9914C6.19086 15.0231 6.08854 14.9368 6.08579 14.6738C6.08396 14.5554 6.08487 14.4352 6.08487 14.2901ZM6.57441 14.4957L12.3892 13.8371V2.16127L6.57441 1.50445V14.4957ZM6.07248 13.7999V3.29909H4.70298V13.7981L6.07248 13.7999ZM6.07707 2.20074H3.60646V13.7981H4.21298V5.08366C4.21298 4.42501 4.21298 3.76635 4.21298 3.10769C4.21298 2.88646 4.29282 2.80889 4.51258 2.80751C4.78143 2.80751 5.05075 2.80751 5.3196 2.80751H6.07661L6.07707 2.20074ZM8.31554 8.00101C8.31554 8.09547 8.29684 8.18898 8.26052 8.27616C8.2242 8.36335 8.17097 8.44246 8.10391 8.50895C8.03685 8.57544 7.95729 8.62797 7.86983 8.66353C7.78236 8.69908 7.68872 8.71695 7.59431 8.7161C7.40665 8.71225 7.22804 8.63472 7.09705 8.50024C6.96605 8.36575 6.89319 8.18511 6.89419 7.99734C6.89412 7.90289 6.91278 7.80935 6.94909 7.72217C6.9854 7.63498 7.03863 7.55589 7.10571 7.48942C7.17278 7.42296 7.25237 7.37045 7.33986 7.33496C7.42736 7.29948 7.52101 7.2817 7.61542 7.28268C7.80307 7.28629 7.98176 7.3637 8.11279 7.49814C8.24382 7.63258 8.31666 7.81325 8.31554 8.00101ZM7.59844 8.23416C7.65902 8.23458 7.71741 8.21148 7.7613 8.16971C7.8052 8.12793 7.83119 8.07074 7.8338 8.01018C7.83675 7.94957 7.81605 7.8902 7.77608 7.84456C7.73611 7.79892 7.67999 7.77058 7.61954 7.76553C7.58809 7.76364 7.55658 7.76827 7.52698 7.77909C7.49739 7.78992 7.47034 7.80672 7.44752 7.82847C7.42471 7.85022 7.40661 7.87644 7.39437 7.9055C7.38213 7.93455 7.37601 7.96581 7.37638 7.99734C7.37525 8.05798 7.39782 8.11666 7.4393 8.1609C7.48077 8.20514 7.53787 8.23142 7.59844 8.23416Z" fill="#5E666E" stroke="#5E666E" stroke-width="0.5"/>
</svg>
